<svg xmlns="http://www.w3.org/2000/svg" width="2648" height="426" viewBox="0 0 2648 426">
<style>
  text { font-family: -apple-system, BlinkMacSystemFont, "Segoe UI", sans-serif; font-size: 11px; fill: #20242a; }
  .title { font-size: 16px; font-weight: 650; }
  .axis { stroke: #333842; stroke-width: 1; }
  .grid { stroke: #d9dee7; stroke-width: 1; }
  .line { fill: none; stroke: #1f7a8c; stroke-width: 2.2; }
  circle { fill: #bf4e30; stroke: white; stroke-width: 1.2; }
</style>
<rect width="100%" height="100%" fill="#ffffff"/>
<text class="title" x="80" y="23">average_response_ms by config</text>
<line class="grid" x1="80" y1="296.0" x2="2608" y2="296.0"/><text x="72" y="300.0" text-anchor="end">-5.366</text>
<line class="grid" x1="80" y1="244.0" x2="2608" y2="244.0"/><text x="72" y="248.0" text-anchor="end">16.5</text>
<line class="grid" x1="80" y1="192.0" x2="2608" y2="192.0"/><text x="72" y="196.0" text-anchor="end">38.36</text>
<line class="grid" x1="80" y1="140.0" x2="2608" y2="140.0"/><text x="72" y="144.0" text-anchor="end">60.22</text>
<line class="grid" x1="80" y1="88.0" x2="2608" y2="88.0"/><text x="72" y="92.0" text-anchor="end">82.08</text>
<line class="grid" x1="80" y1="36.0" x2="2608" y2="36.0"/><text x="72" y="40.0" text-anchor="end">103.9</text>
<line class="axis" x1="80" y1="36" x2="80" y2="296"/>
<line class="axis" x1="80" y1="296" x2="2608" y2="296"/>
<polyline class="line" points="80.0,271.9 112.0,53.9 144.0,54.0 176.0,54.0 208.0,267.5 240.0,258.9 272.0,255.2 304.0,264.8 336.0,269.4 368.0,270.1 400.0,260.1 432.0,270.3 464.0,271.3 496.0,266.0 528.0,269.6 560.0,270.7 592.0,272.7 624.0,271.4 656.0,270.7 688.0,271.3 720.0,271.0 752.0,266.2 784.0,270.5 816.0,264.9 848.0,266.2 880.0,273.2 912.0,262.2 944.0,267.7 976.0,268.8 1008.0,265.7 1040.0,271.8 1072.0,274.3 1104.0,271.1 1136.0,270.5 1168.0,275.8 1200.0,273.8 1232.0,274.6 1264.0,276.9 1296.0,276.0 1328.0,271.2 1360.0,273.7 1392.0,272.3 1424.0,275.6 1456.0,274.0 1488.0,274.1 1520.0,275.8 1552.0,272.2 1584.0,276.7 1616.0,272.9 1648.0,274.5 1680.0,274.5 1712.0,274.9 1744.0,268.5 1776.0,274.6 1808.0,275.3 1840.0,273.4 1872.0,278.1 1904.0,272.6 1936.0,272.2 1968.0,273.1 2000.0,274.2 2032.0,273.9 2064.0,273.1 2096.0,274.0 2128.0,271.1 2160.0,274.7 2192.0,266.5 2224.0,275.2 2256.0,272.5 2288.0,274.2 2320.0,270.1 2352.0,277.5 2384.0,274.0 2416.0,271.5 2448.0,274.0 2480.0,274.1 2512.0,275.7 2544.0,272.8 2576.0,275.4 2608.0,271.7"/>
<circle cx="80.0" cy="271.9" r="3.2"><title>move_ordering.center_pawn_development_bonus: 18-&gt;20: 4.77172</title></circle>
<circle cx="112.0" cy="53.9" r="3.2"><title>final_catarena_acceptance_001: 96.4069</title></circle>
<circle cx="144.0" cy="54.0" r="3.2"><title>final_catarena_acceptance_002: 96.3745</title></circle>
<circle cx="176.0" cy="54.0" r="3.2"><title>final_catarena_acceptance_003: 96.3673</title></circle>
<circle cx="208.0" cy="267.5" r="3.2"><title>live_openai_safe_001: 6.60845</title></circle>
<circle cx="240.0" cy="258.9" r="3.2"><title>live_openai_safe_002: 10.2154</title></circle>
<circle cx="272.0" cy="255.2" r="3.2"><title>live_openai_safe_003: 11.7802</title></circle>
<circle cx="304.0" cy="264.8" r="3.2"><title>live_openai_safe_004: 7.76826</title></circle>
<circle cx="336.0" cy="269.4" r="3.2"><title>live_openai_safe_005: 5.83605</title></circle>
<circle cx="368.0" cy="270.1" r="3.2"><title>live_openai_safe_006: 5.52233</title></circle>
<circle cx="400.0" cy="260.1" r="3.2"><title>live_openai_safe_007: 9.73932</title></circle>
<circle cx="432.0" cy="270.3" r="3.2"><title>live_openai_safe_008: 5.42282</title></circle>
<circle cx="464.0" cy="271.3" r="3.2"><title>live_openai_safe_009: 5.02816</title></circle>
<circle cx="496.0" cy="266.0" r="3.2"><title>live_openai_safe_010: 7.242</title></circle>
<circle cx="528.0" cy="269.6" r="3.2"><title>live_openai_safe_011: 5.734</title></circle>
<circle cx="560.0" cy="270.7" r="3.2"><title>live_openai_safe_012: 5.26068</title></circle>
<circle cx="592.0" cy="272.7" r="3.2"><title>live_openai_safe_013: 4.42275</title></circle>
<circle cx="624.0" cy="271.4" r="3.2"><title>live_openai_safe_014: 4.9826</title></circle>
<circle cx="656.0" cy="270.7" r="3.2"><title>live_openai_safe_015: 5.28522</title></circle>
<circle cx="688.0" cy="271.3" r="3.2"><title>live_openai_safe_016: 5.03374</title></circle>
<circle cx="720.0" cy="271.0" r="3.2"><title>live_openai_safe_017: 5.12957</title></circle>
<circle cx="752.0" cy="266.2" r="3.2"><title>live_openai_safe_018: 7.14191</title></circle>
<circle cx="784.0" cy="270.5" r="3.2"><title>live_openai_safe_022: 5.3681</title></circle>
<circle cx="816.0" cy="264.9" r="3.2"><title>live_openai_safe_023: 7.69666</title></circle>
<circle cx="848.0" cy="266.2" r="3.2"><title>live_openai_safe_024: 7.14291</title></circle>
<circle cx="880.0" cy="273.2" r="3.2"><title>live_openai_safe_028: 4.2408</title></circle>
<circle cx="912.0" cy="262.2" r="3.2"><title>live_openai_safe_029: 8.83127</title></circle>
<circle cx="944.0" cy="267.7" r="3.2"><title>live_openai_safe_030: 6.54925</title></circle>
<circle cx="976.0" cy="268.8" r="3.2"><title>live_openai_safe_034: 6.076</title></circle>
<circle cx="1008.0" cy="265.7" r="3.2"><title>live_openai_safe_035: 7.385</title></circle>
<circle cx="1040.0" cy="271.8" r="3.2"><title>live_openai_safe_036: 4.80264</title></circle>
<circle cx="1072.0" cy="274.3" r="3.2"><title>live_openai_safe_040: 3.74904</title></circle>
<circle cx="1104.0" cy="271.1" r="3.2"><title>live_openai_safe_041: 5.0888</title></circle>
<circle cx="1136.0" cy="270.5" r="3.2"><title>live_openai_safe_042: 5.35762</title></circle>
<circle cx="1168.0" cy="275.8" r="3.2"><title>live_openai_safe_046: 3.13944</title></circle>
<circle cx="1200.0" cy="273.8" r="3.2"><title>live_openai_safe_047: 3.95318</title></circle>
<circle cx="1232.0" cy="274.6" r="3.2"><title>live_openai_safe_048: 3.64373</title></circle>
<circle cx="1264.0" cy="276.9" r="3.2"><title>live_openai_safe_052: 2.66172</title></circle>
<circle cx="1296.0" cy="276.0" r="3.2"><title>live_openai_safe_053: 3.02182</title></circle>
<circle cx="1328.0" cy="271.2" r="3.2"><title>live_openai_safe_054: 5.06561</title></circle>
<circle cx="1360.0" cy="273.7" r="3.2"><title>live_openai_safe_058: 4.01318</title></circle>
<circle cx="1392.0" cy="272.3" r="3.2"><title>live_openai_safe_059: 4.58495</title></circle>
<circle cx="1424.0" cy="275.6" r="3.2"><title>live_openai_safe_060: 3.19053</title></circle>
<circle cx="1456.0" cy="274.0" r="3.2"><title>live_openai_safe_064: 3.89009</title></circle>
<circle cx="1488.0" cy="274.1" r="3.2"><title>live_openai_safe_065: 3.82162</title></circle>
<circle cx="1520.0" cy="275.8" r="3.2"><title>live_openai_safe_066: 3.12176</title></circle>
<circle cx="1552.0" cy="272.2" r="3.2"><title>live_openai_safe_067: 4.65088</title></circle>
<circle cx="1584.0" cy="276.7" r="3.2"><title>live_openai_safe_068: 2.7544</title></circle>
<circle cx="1616.0" cy="272.9" r="3.2"><title>live_openai_safe_069: 4.35816</title></circle>
<circle cx="1648.0" cy="274.5" r="3.2"><title>live_openai_safe_070: 3.65605</title></circle>
<circle cx="1680.0" cy="274.5" r="3.2"><title>live_openai_safe_071: 3.67217</title></circle>
<circle cx="1712.0" cy="274.9" r="3.2"><title>live_openai_safe_072: 3.49863</title></circle>
<circle cx="1744.0" cy="268.5" r="3.2"><title>live_openai_safe_073: 6.18344</title></circle>
<circle cx="1776.0" cy="274.6" r="3.2"><title>live_openai_safe_074: 3.65218</title></circle>
<circle cx="1808.0" cy="275.3" r="3.2"><title>live_openai_safe_075: 3.32793</title></circle>
<circle cx="1840.0" cy="273.4" r="3.2"><title>live_openai_safe_076: 4.14362</title></circle>
<circle cx="1872.0" cy="278.1" r="3.2"><title>live_openai_safe_077: 2.17287</title></circle>
<circle cx="1904.0" cy="272.6" r="3.2"><title>live_openai_safe_078: 4.45124</title></circle>
<circle cx="1936.0" cy="272.2" r="3.2"><title>live_openai_safe_079: 4.63532</title></circle>
<circle cx="1968.0" cy="273.1" r="3.2"><title>live_openai_safe_080: 4.24375</title></circle>
<circle cx="2000.0" cy="274.2" r="3.2"><title>live_openai_safe_081: 3.79418</title></circle>
<circle cx="2032.0" cy="273.9" r="3.2"><title>live_openai_safe_082: 3.9417</title></circle>
<circle cx="2064.0" cy="273.1" r="3.2"><title>live_openai_safe_083: 4.25747</title></circle>
<circle cx="2096.0" cy="274.0" r="3.2"><title>live_openai_safe_084: 3.87219</title></circle>
<circle cx="2128.0" cy="271.1" r="3.2"><title>live_openai_safe_085: 5.1101</title></circle>
<circle cx="2160.0" cy="274.7" r="3.2"><title>live_openai_safe_086: 3.6076</title></circle>
<circle cx="2192.0" cy="266.5" r="3.2"><title>live_openai_safe_087: 7.05254</title></circle>
<circle cx="2224.0" cy="275.2" r="3.2"><title>live_openai_safe_088: 3.399</title></circle>
<circle cx="2256.0" cy="272.5" r="3.2"><title>live_openai_safe_089: 4.52345</title></circle>
<circle cx="2288.0" cy="274.2" r="3.2"><title>live_openai_safe_090: 3.80271</title></circle>
<circle cx="2320.0" cy="270.1" r="3.2"><title>live_openai_safe_091: 5.5357</title></circle>
<circle cx="2352.0" cy="277.5" r="3.2"><title>live_openai_safe_092: 2.40858</title></circle>
<circle cx="2384.0" cy="274.0" r="3.2"><title>live_openai_safe_093: 3.9035</title></circle>
<circle cx="2416.0" cy="271.5" r="3.2"><title>live_openai_safe_094: 4.93448</title></circle>
<circle cx="2448.0" cy="274.0" r="3.2"><title>live_openai_safe_095: 3.89423</title></circle>
<circle cx="2480.0" cy="274.1" r="3.2"><title>live_openai_safe_096: 3.86054</title></circle>
<circle cx="2512.0" cy="275.7" r="3.2"><title>live_openai_safe_097: 3.17357</title></circle>
<circle cx="2544.0" cy="272.8" r="3.2"><title>live_openai_safe_098: 4.39208</title></circle>
<circle cx="2576.0" cy="275.4" r="3.2"><title>live_openai_safe_099: 3.2958</title></circle>
<circle cx="2608.0" cy="271.7" r="3.2"><title>live_openai_safe_100: 4.83794</title></circle>
<text x="80.0" y="314" transform="rotate(55 80.0 314)">move_ordering.center_pawn_development_bon…</text>
<text x="112.0" y="314" transform="rotate(55 112.0 314)">final_catarena_acceptance_001</text>
<text x="144.0" y="314" transform="rotate(55 144.0 314)">final_catarena_acceptance_002</text>
<text x="176.0" y="314" transform="rotate(55 176.0 314)">final_catarena_acceptance_003</text>
<text x="208.0" y="314" transform="rotate(55 208.0 314)">live_openai_safe_001</text>
<text x="240.0" y="314" transform="rotate(55 240.0 314)">live_openai_safe_002</text>
<text x="272.0" y="314" transform="rotate(55 272.0 314)">live_openai_safe_003</text>
<text x="304.0" y="314" transform="rotate(55 304.0 314)">live_openai_safe_004</text>
<text x="336.0" y="314" transform="rotate(55 336.0 314)">live_openai_safe_005</text>
<text x="368.0" y="314" transform="rotate(55 368.0 314)">live_openai_safe_006</text>
<text x="400.0" y="314" transform="rotate(55 400.0 314)">live_openai_safe_007</text>
<text x="432.0" y="314" transform="rotate(55 432.0 314)">live_openai_safe_008</text>
<text x="464.0" y="314" transform="rotate(55 464.0 314)">live_openai_safe_009</text>
<text x="496.0" y="314" transform="rotate(55 496.0 314)">live_openai_safe_010</text>
<text x="528.0" y="314" transform="rotate(55 528.0 314)">live_openai_safe_011</text>
<text x="560.0" y="314" transform="rotate(55 560.0 314)">live_openai_safe_012</text>
<text x="592.0" y="314" transform="rotate(55 592.0 314)">live_openai_safe_013</text>
<text x="624.0" y="314" transform="rotate(55 624.0 314)">live_openai_safe_014</text>
<text x="656.0" y="314" transform="rotate(55 656.0 314)">live_openai_safe_015</text>
<text x="688.0" y="314" transform="rotate(55 688.0 314)">live_openai_safe_016</text>
<text x="720.0" y="314" transform="rotate(55 720.0 314)">live_openai_safe_017</text>
<text x="752.0" y="314" transform="rotate(55 752.0 314)">live_openai_safe_018</text>
<text x="784.0" y="314" transform="rotate(55 784.0 314)">live_openai_safe_022</text>
<text x="816.0" y="314" transform="rotate(55 816.0 314)">live_openai_safe_023</text>
<text x="848.0" y="314" transform="rotate(55 848.0 314)">live_openai_safe_024</text>
<text x="880.0" y="314" transform="rotate(55 880.0 314)">live_openai_safe_028</text>
<text x="912.0" y="314" transform="rotate(55 912.0 314)">live_openai_safe_029</text>
<text x="944.0" y="314" transform="rotate(55 944.0 314)">live_openai_safe_030</text>
<text x="976.0" y="314" transform="rotate(55 976.0 314)">live_openai_safe_034</text>
<text x="1008.0" y="314" transform="rotate(55 1008.0 314)">live_openai_safe_035</text>
<text x="1040.0" y="314" transform="rotate(55 1040.0 314)">live_openai_safe_036</text>
<text x="1072.0" y="314" transform="rotate(55 1072.0 314)">live_openai_safe_040</text>
<text x="1104.0" y="314" transform="rotate(55 1104.0 314)">live_openai_safe_041</text>
<text x="1136.0" y="314" transform="rotate(55 1136.0 314)">live_openai_safe_042</text>
<text x="1168.0" y="314" transform="rotate(55 1168.0 314)">live_openai_safe_046</text>
<text x="1200.0" y="314" transform="rotate(55 1200.0 314)">live_openai_safe_047</text>
<text x="1232.0" y="314" transform="rotate(55 1232.0 314)">live_openai_safe_048</text>
<text x="1264.0" y="314" transform="rotate(55 1264.0 314)">live_openai_safe_052</text>
<text x="1296.0" y="314" transform="rotate(55 1296.0 314)">live_openai_safe_053</text>
<text x="1328.0" y="314" transform="rotate(55 1328.0 314)">live_openai_safe_054</text>
<text x="1360.0" y="314" transform="rotate(55 1360.0 314)">live_openai_safe_058</text>
<text x="1392.0" y="314" transform="rotate(55 1392.0 314)">live_openai_safe_059</text>
<text x="1424.0" y="314" transform="rotate(55 1424.0 314)">live_openai_safe_060</text>
<text x="1456.0" y="314" transform="rotate(55 1456.0 314)">live_openai_safe_064</text>
<text x="1488.0" y="314" transform="rotate(55 1488.0 314)">live_openai_safe_065</text>
<text x="1520.0" y="314" transform="rotate(55 1520.0 314)">live_openai_safe_066</text>
<text x="1552.0" y="314" transform="rotate(55 1552.0 314)">live_openai_safe_067</text>
<text x="1584.0" y="314" transform="rotate(55 1584.0 314)">live_openai_safe_068</text>
<text x="1616.0" y="314" transform="rotate(55 1616.0 314)">live_openai_safe_069</text>
<text x="1648.0" y="314" transform="rotate(55 1648.0 314)">live_openai_safe_070</text>
<text x="1680.0" y="314" transform="rotate(55 1680.0 314)">live_openai_safe_071</text>
<text x="1712.0" y="314" transform="rotate(55 1712.0 314)">live_openai_safe_072</text>
<text x="1744.0" y="314" transform="rotate(55 1744.0 314)">live_openai_safe_073</text>
<text x="1776.0" y="314" transform="rotate(55 1776.0 314)">live_openai_safe_074</text>
<text x="1808.0" y="314" transform="rotate(55 1808.0 314)">live_openai_safe_075</text>
<text x="1840.0" y="314" transform="rotate(55 1840.0 314)">live_openai_safe_076</text>
<text x="1872.0" y="314" transform="rotate(55 1872.0 314)">live_openai_safe_077</text>
<text x="1904.0" y="314" transform="rotate(55 1904.0 314)">live_openai_safe_078</text>
<text x="1936.0" y="314" transform="rotate(55 1936.0 314)">live_openai_safe_079</text>
<text x="1968.0" y="314" transform="rotate(55 1968.0 314)">live_openai_safe_080</text>
<text x="2000.0" y="314" transform="rotate(55 2000.0 314)">live_openai_safe_081</text>
<text x="2032.0" y="314" transform="rotate(55 2032.0 314)">live_openai_safe_082</text>
<text x="2064.0" y="314" transform="rotate(55 2064.0 314)">live_openai_safe_083</text>
<text x="2096.0" y="314" transform="rotate(55 2096.0 314)">live_openai_safe_084</text>
<text x="2128.0" y="314" transform="rotate(55 2128.0 314)">live_openai_safe_085</text>
<text x="2160.0" y="314" transform="rotate(55 2160.0 314)">live_openai_safe_086</text>
<text x="2192.0" y="314" transform="rotate(55 2192.0 314)">live_openai_safe_087</text>
<text x="2224.0" y="314" transform="rotate(55 2224.0 314)">live_openai_safe_088</text>
<text x="2256.0" y="314" transform="rotate(55 2256.0 314)">live_openai_safe_089</text>
<text x="2288.0" y="314" transform="rotate(55 2288.0 314)">live_openai_safe_090</text>
<text x="2320.0" y="314" transform="rotate(55 2320.0 314)">live_openai_safe_091</text>
<text x="2352.0" y="314" transform="rotate(55 2352.0 314)">live_openai_safe_092</text>
<text x="2384.0" y="314" transform="rotate(55 2384.0 314)">live_openai_safe_093</text>
<text x="2416.0" y="314" transform="rotate(55 2416.0 314)">live_openai_safe_094</text>
<text x="2448.0" y="314" transform="rotate(55 2448.0 314)">live_openai_safe_095</text>
<text x="2480.0" y="314" transform="rotate(55 2480.0 314)">live_openai_safe_096</text>
<text x="2512.0" y="314" transform="rotate(55 2512.0 314)">live_openai_safe_097</text>
<text x="2544.0" y="314" transform="rotate(55 2544.0 314)">live_openai_safe_098</text>
<text x="2576.0" y="314" transform="rotate(55 2576.0 314)">live_openai_safe_099</text>
<text x="2608.0" y="314" transform="rotate(55 2608.0 314)">live_openai_safe_100</text>
</svg>
