<svg xmlns="http://www.w3.org/2000/svg" width="2648" height="426" viewBox="0 0 2648 426">
<style>
  text { font-family: -apple-system, BlinkMacSystemFont, "Segoe UI", sans-serif; font-size: 11px; fill: #20242a; }
  .title { font-size: 16px; font-weight: 650; }
  .axis { stroke: #333842; stroke-width: 1; }
  .grid { stroke: #d9dee7; stroke-width: 1; }
  .line { fill: none; stroke: #1f7a8c; stroke-width: 2.2; }
  circle { fill: #bf4e30; stroke: white; stroke-width: 1.2; }
</style>
<rect width="100%" height="100%" fill="#ffffff"/>
<text class="title" x="80" y="23">average_response_ms by config</text>
<line class="grid" x1="80" y1="296.0" x2="2608" y2="296.0"/><text x="72" y="300.0" text-anchor="end">194.5</text>
<line class="grid" x1="80" y1="244.0" x2="2608" y2="244.0"/><text x="72" y="248.0" text-anchor="end">195.9</text>
<line class="grid" x1="80" y1="192.0" x2="2608" y2="192.0"/><text x="72" y="196.0" text-anchor="end">197.4</text>
<line class="grid" x1="80" y1="140.0" x2="2608" y2="140.0"/><text x="72" y="144.0" text-anchor="end">198.8</text>
<line class="grid" x1="80" y1="88.0" x2="2608" y2="88.0"/><text x="72" y="92.0" text-anchor="end">200.3</text>
<line class="grid" x1="80" y1="36.0" x2="2608" y2="36.0"/><text x="72" y="40.0" text-anchor="end">201.7</text>
<line class="axis" x1="80" y1="36" x2="80" y2="296"/>
<line class="axis" x1="80" y1="296" x2="2608" y2="296"/>
<polyline class="line" points="80.0,223.5 112.0,217.7 144.0,224.3 176.0,214.9 208.0,250.8 240.0,231.5 272.0,228.2 304.0,233.3 336.0,244.8 368.0,237.5 400.0,247.2 432.0,272.1 464.0,260.2 496.0,270.7 528.0,135.6 560.0,249.2 592.0,251.4 624.0,268.5 656.0,220.9 688.0,229.4 720.0,230.2 752.0,231.7 784.0,231.0 816.0,257.5 848.0,255.2 880.0,257.9 912.0,257.9 944.0,231.8 976.0,230.4 1008.0,231.5 1040.0,229.9 1072.0,231.0 1104.0,232.2 1136.0,232.3 1168.0,232.0 1200.0,232.2 1232.0,232.3 1264.0,223.7 1296.0,133.3 1328.0,53.9 1360.0,231.2 1392.0,267.8 1424.0,212.3 1456.0,272.9 1488.0,232.2 1520.0,232.2 1552.0,201.8 1584.0,181.6 1616.0,223.3 1648.0,195.1 1680.0,278.1 1712.0,228.0 1744.0,230.7 1776.0,194.6 1808.0,231.5 1840.0,231.4 1872.0,231.6 1904.0,230.7 1936.0,178.8 1968.0,266.2 2000.0,231.9 2032.0,230.2 2064.0,228.1 2096.0,223.3 2128.0,205.9 2160.0,230.3 2192.0,229.9 2224.0,222.7 2256.0,231.6 2288.0,231.9 2320.0,232.3 2352.0,230.8 2384.0,231.5 2416.0,231.7 2448.0,223.9 2480.0,229.0 2512.0,220.5 2544.0,188.5 2576.0,230.5 2608.0,192.0"/>
<circle cx="80.0" cy="223.5" r="3.2"><title>search.history_order: 196.507</title></circle>
<circle cx="112.0" cy="217.7" r="3.2"><title>eval.king_safety_weight: 1.0-&gt;1.15: 196.669</title></circle>
<circle cx="144.0" cy="224.3" r="3.2"><title>move_ordering.development: 196.486</title></circle>
<circle cx="176.0" cy="214.9" r="3.2"><title>search.depth_time: 196.747</title></circle>
<circle cx="208.0" cy="250.8" r="3.2"><title>move_ordering.extended_center_bonus: 15-&gt;10: 195.75</title></circle>
<circle cx="240.0" cy="231.5" r="3.2"><title>king_safety.attacked_king_penalty: 196.285</title></circle>
<circle cx="272.0" cy="228.2" r="3.2"><title>search.mate_detection_margin: 196.378</title></circle>
<circle cx="304.0" cy="233.3" r="3.2"><title>search.root_mate_stop_distance: 196.234</title></circle>
<circle cx="336.0" cy="244.8" r="3.2"><title>move_ordering.check_bonus: 195.916</title></circle>
<circle cx="368.0" cy="237.5" r="3.2"><title>move_ordering.promotion_bonus: 196.119</title></circle>
<circle cx="400.0" cy="247.2" r="3.2"><title>search.history_bonus_power: 195.851</title></circle>
<circle cx="432.0" cy="272.1" r="3.2"><title>eval.king_safety_weight: 1.15-&gt;1.3: 195.158</title></circle>
<circle cx="464.0" cy="260.2" r="3.2"><title>move_ordering.capture_base_bonus: 195.488</title></circle>
<circle cx="496.0" cy="270.7" r="3.2"><title>move_ordering.capture_victim_multiplier: 195.197</title></circle>
<circle cx="528.0" cy="135.6" r="3.2"><title>move_ordering.center_pawn_development_bonus: 18-&gt;20: 198.947</title></circle>
<circle cx="560.0" cy="249.2" r="3.2"><title>search.history_bonus_scale: 195.796</title></circle>
<circle cx="592.0" cy="251.4" r="3.2"><title>move_ordering.center_bonus: 40-&gt;50: 195.734</title></circle>
<circle cx="624.0" cy="268.5" r="3.2"><title>eval.king_safety_weight: 1.15-&gt;1.1: 195.258</title></circle>
<circle cx="656.0" cy="220.9" r="3.2"><title>eval.material_weight: 196.579</title></circle>
<circle cx="688.0" cy="229.4" r="3.2"><title>eval.mobility_weight: 1.0-&gt;0.85: 196.345</title></circle>
<circle cx="720.0" cy="230.2" r="3.2"><title>king_safety.attacked_ring_penalty: 1-&gt;0: 196.321</title></circle>
<circle cx="752.0" cy="231.7" r="3.2"><title>king_safety.attacked_ring_penalty: 2-&gt;1: 196.279</title></circle>
<circle cx="784.0" cy="231.0" r="3.2"><title>move_ordering.capture_base_bonus: 1000-&gt;1150: 196.299</title></circle>
<circle cx="816.0" cy="257.5" r="3.2"><title>move_ordering.castling_bonus: 195.565</title></circle>
<circle cx="848.0" cy="255.2" r="3.2"><title>move_ordering.center_pawn_development_bonus: 195.629</title></circle>
<circle cx="880.0" cy="257.9" r="3.2"><title>move_ordering.early_queen_penalty: 195.552</title></circle>
<circle cx="912.0" cy="257.9" r="3.2"><title>move_ordering.early_rook_penalty: 195.554</title></circle>
<circle cx="944.0" cy="231.8" r="3.2"><title>move_ordering.minor_development_bonus: 30-&gt;21: 196.276</title></circle>
<circle cx="976.0" cy="230.4" r="3.2"><title>move_ordering.tactical: 196.317</title></circle>
<circle cx="1008.0" cy="231.5" r="3.2"><title>pawn_structure.advance_bonus_per_rank: 3-&gt;4: 196.284</title></circle>
<circle cx="1040.0" cy="229.9" r="3.2"><title>pawn_structure.doubled_penalty: 196.329</title></circle>
<circle cx="1072.0" cy="231.0" r="3.2"><title>pawn_structure.isolated_penalty: 196.298</title></circle>
<circle cx="1104.0" cy="232.2" r="3.2"><title>piece_activity.center_bonus: 15-&gt;14: 196.266</title></circle>
<circle cx="1136.0" cy="232.3" r="3.2"><title>piece_activity.extended_center_bonus: 1-&gt;0: 196.262</title></circle>
<circle cx="1168.0" cy="232.0" r="3.2"><title>piece_activity.extended_center_bonus: 2-&gt;1: 196.271</title></circle>
<circle cx="1200.0" cy="232.2" r="3.2"><title>piece_activity.extended_center_bonus: 3-&gt;2: 196.267</title></circle>
<circle cx="1232.0" cy="232.3" r="3.2"><title>piece_activity.extended_center_bonus: 4-&gt;3: 196.264</title></circle>
<circle cx="1264.0" cy="223.7" r="3.2"><title>piece_activity.minor_rank_bonus_weight: 196.502</title></circle>
<circle cx="1296.0" cy="133.3" r="3.2"><title>search.tt_move_bonus: 50000-&gt;49000: 199.01</title></circle>
<circle cx="1328.0" cy="53.9" r="3.2"><title>search.tt_move_bonus: 50000-&gt;52000: 201.212</title></circle>
<circle cx="1360.0" cy="231.2" r="3.2"><title>eval.mobility_weight: 0.85-&gt;0.7: 196.293</title></circle>
<circle cx="1392.0" cy="267.8" r="3.2"><title>eval.piece_activity_weight: 0.85-&gt;0.8: 195.279</title></circle>
<circle cx="1424.0" cy="212.3" r="3.2"><title>eval.piece_activity_weight: 1.0-&gt;0.95: 196.819</title></circle>
<circle cx="1456.0" cy="272.9" r="3.2"><title>move_ordering.minor_development_bonus: 21-&gt;12: 195.137</title></circle>
<circle cx="1488.0" cy="232.2" r="3.2"><title>piece_activity.extended_center_bonus: 5-&gt;4: 196.265</title></circle>
<circle cx="1520.0" cy="232.2" r="3.2"><title>piece_activity.extended_center_bonus: 6-&gt;5: 196.265</title></circle>
<circle cx="1552.0" cy="201.8" r="3.2"><title>piece_values.bishop: 330-&gt;310: 197.109</title></circle>
<circle cx="1584.0" cy="181.6" r="3.2"><title>search.tt_move_bonus: 50000-&gt;29000: 197.669</title></circle>
<circle cx="1616.0" cy="223.3" r="3.2"><title>search.tt_move_bonus: 50000-&gt;48000: 196.512</title></circle>
<circle cx="1648.0" cy="195.1" r="3.2"><title>search.tt_move_bonus: 50000-&gt;51000: 197.295</title></circle>
<circle cx="1680.0" cy="278.1" r="3.2"><title>move_ordering.capture_attacker_penalty: 194.993</title></circle>
<circle cx="1712.0" cy="228.0" r="3.2"><title>move_ordering.early_rook_penalty: 10-&gt;9: 196.382</title></circle>
<circle cx="1744.0" cy="230.7" r="3.2"><title>search.mate_threshold: 196.306</title></circle>
<circle cx="1776.0" cy="194.6" r="3.2"><title>eval.constants: 197.31</title></circle>
<circle cx="1808.0" cy="231.5" r="3.2"><title>eval.draw_score: 196.285</title></circle>
<circle cx="1840.0" cy="231.4" r="3.2"><title>eval.mate_score: 196.288</title></circle>
<circle cx="1872.0" cy="231.6" r="3.2"><title>eval.missing_king_penalty: 196.283</title></circle>
<circle cx="1904.0" cy="230.7" r="3.2"><title>eval.pawn_structure_weight: 196.309</title></circle>
<circle cx="1936.0" cy="178.8" r="3.2"><title>eval.pawn_structure_weight: 1.0-&gt;1.05: 197.748</title></circle>
<circle cx="1968.0" cy="266.2" r="3.2"><title>eval.pawn_structure_weight: 1.15-&gt;1.1: 195.322</title></circle>
<circle cx="2000.0" cy="231.9" r="3.2"><title>king_safety.attacked_king_penalty: 70-&gt;162: 196.274</title></circle>
<circle cx="2032.0" cy="230.2" r="3.2"><title>king_safety.pawn_shield_bonus: 7-&gt;9: 196.323</title></circle>
<circle cx="2064.0" cy="228.1" r="3.2"><title>king_safety.piece_shield_bonus: 3-&gt;4: 196.378</title></circle>
<circle cx="2096.0" cy="223.3" r="3.2"><title>move_ordering.capture_base_bonus: 1000-&gt;950: 196.513</title></circle>
<circle cx="2128.0" cy="205.9" r="3.2"><title>move_ordering.early_queen_penalty: 25-&gt;23: 196.996</title></circle>
<circle cx="2160.0" cy="230.3" r="3.2"><title>phase: 196.318</title></circle>
<circle cx="2192.0" cy="229.9" r="3.2"><title>phase.endgame_non_king_piece_threshold: 196.328</title></circle>
<circle cx="2224.0" cy="222.7" r="3.2"><title>phase.opening_fullmove_limit: 196.53</title></circle>
<circle cx="2256.0" cy="231.6" r="3.2"><title>piece_activity.center_bonus: 196.283</title></circle>
<circle cx="2288.0" cy="231.9" r="3.2"><title>piece_activity.center_bonus: 13-&gt;12: 196.273</title></circle>
<circle cx="2320.0" cy="232.3" r="3.2"><title>piece_activity.center_bonus: 14-&gt;13: 196.264</title></circle>
<circle cx="2352.0" cy="230.8" r="3.2"><title>piece_activity.center_bonus: 15-&gt;17: 196.305</title></circle>
<circle cx="2384.0" cy="231.5" r="3.2"><title>piece_activity.minor_center_distance_penalty: 2-&gt;1: 196.284</title></circle>
<circle cx="2416.0" cy="231.7" r="3.2"><title>piece_activity.minor_rank_bonus_weight: 2-&gt;1: 196.28</title></circle>
<circle cx="2448.0" cy="223.9" r="3.2"><title>piece_values: 196.497</title></circle>
<circle cx="2480.0" cy="229.0" r="3.2"><title>piece_values.knight: 320-&gt;340: 196.354</title></circle>
<circle cx="2512.0" cy="220.5" r="3.2"><title>piece_values.pawn: 100-&gt;110: 196.591</title></circle>
<circle cx="2544.0" cy="188.5" r="3.2"><title>piece_values.queen: 197.479</title></circle>
<circle cx="2576.0" cy="230.5" r="3.2"><title>search.default_depth: 196.314</title></circle>
<circle cx="2608.0" cy="192.0" r="3.2"><title>search.max_depth: 197.38</title></circle>
<text x="80.0" y="314" transform="rotate(55 80.0 314)">search.history_order</text>
<text x="112.0" y="314" transform="rotate(55 112.0 314)">eval.king_safety_weight: 1.0-&gt;1.15</text>
<text x="144.0" y="314" transform="rotate(55 144.0 314)">move_ordering.development</text>
<text x="176.0" y="314" transform="rotate(55 176.0 314)">search.depth_time</text>
<text x="208.0" y="314" transform="rotate(55 208.0 314)">move_ordering.extended_center_bonus: 15-&gt;…</text>
<text x="240.0" y="314" transform="rotate(55 240.0 314)">king_safety.attacked_king_penalty</text>
<text x="272.0" y="314" transform="rotate(55 272.0 314)">search.mate_detection_margin</text>
<text x="304.0" y="314" transform="rotate(55 304.0 314)">search.root_mate_stop_distance</text>
<text x="336.0" y="314" transform="rotate(55 336.0 314)">move_ordering.check_bonus</text>
<text x="368.0" y="314" transform="rotate(55 368.0 314)">move_ordering.promotion_bonus</text>
<text x="400.0" y="314" transform="rotate(55 400.0 314)">search.history_bonus_power</text>
<text x="432.0" y="314" transform="rotate(55 432.0 314)">eval.king_safety_weight: 1.15-&gt;1.3</text>
<text x="464.0" y="314" transform="rotate(55 464.0 314)">move_ordering.capture_base_bonus</text>
<text x="496.0" y="314" transform="rotate(55 496.0 314)">move_ordering.capture_victim_multiplier</text>
<text x="528.0" y="314" transform="rotate(55 528.0 314)">move_ordering.center_pawn_development_bon…</text>
<text x="560.0" y="314" transform="rotate(55 560.0 314)">search.history_bonus_scale</text>
<text x="592.0" y="314" transform="rotate(55 592.0 314)">move_ordering.center_bonus: 40-&gt;50</text>
<text x="624.0" y="314" transform="rotate(55 624.0 314)">eval.king_safety_weight: 1.15-&gt;1.1</text>
<text x="656.0" y="314" transform="rotate(55 656.0 314)">eval.material_weight</text>
<text x="688.0" y="314" transform="rotate(55 688.0 314)">eval.mobility_weight: 1.0-&gt;0.85</text>
<text x="720.0" y="314" transform="rotate(55 720.0 314)">king_safety.attacked_ring_penalty: 1-&gt;0</text>
<text x="752.0" y="314" transform="rotate(55 752.0 314)">king_safety.attacked_ring_penalty: 2-&gt;1</text>
<text x="784.0" y="314" transform="rotate(55 784.0 314)">move_ordering.capture_base_bonus: 1000-&gt;1…</text>
<text x="816.0" y="314" transform="rotate(55 816.0 314)">move_ordering.castling_bonus</text>
<text x="848.0" y="314" transform="rotate(55 848.0 314)">move_ordering.center_pawn_development_bon…</text>
<text x="880.0" y="314" transform="rotate(55 880.0 314)">move_ordering.early_queen_penalty</text>
<text x="912.0" y="314" transform="rotate(55 912.0 314)">move_ordering.early_rook_penalty</text>
<text x="944.0" y="314" transform="rotate(55 944.0 314)">move_ordering.minor_development_bonus: 30…</text>
<text x="976.0" y="314" transform="rotate(55 976.0 314)">move_ordering.tactical</text>
<text x="1008.0" y="314" transform="rotate(55 1008.0 314)">pawn_structure.advance_bonus_per_rank: 3-…</text>
<text x="1040.0" y="314" transform="rotate(55 1040.0 314)">pawn_structure.doubled_penalty</text>
<text x="1072.0" y="314" transform="rotate(55 1072.0 314)">pawn_structure.isolated_penalty</text>
<text x="1104.0" y="314" transform="rotate(55 1104.0 314)">piece_activity.center_bonus: 15-&gt;14</text>
<text x="1136.0" y="314" transform="rotate(55 1136.0 314)">piece_activity.extended_center_bonus: 1-&gt;0</text>
<text x="1168.0" y="314" transform="rotate(55 1168.0 314)">piece_activity.extended_center_bonus: 2-&gt;1</text>
<text x="1200.0" y="314" transform="rotate(55 1200.0 314)">piece_activity.extended_center_bonus: 3-&gt;2</text>
<text x="1232.0" y="314" transform="rotate(55 1232.0 314)">piece_activity.extended_center_bonus: 4-&gt;3</text>
<text x="1264.0" y="314" transform="rotate(55 1264.0 314)">piece_activity.minor_rank_bonus_weight</text>
<text x="1296.0" y="314" transform="rotate(55 1296.0 314)">search.tt_move_bonus: 50000-&gt;49000</text>
<text x="1328.0" y="314" transform="rotate(55 1328.0 314)">search.tt_move_bonus: 50000-&gt;52000</text>
<text x="1360.0" y="314" transform="rotate(55 1360.0 314)">eval.mobility_weight: 0.85-&gt;0.7</text>
<text x="1392.0" y="314" transform="rotate(55 1392.0 314)">eval.piece_activity_weight: 0.85-&gt;0.8</text>
<text x="1424.0" y="314" transform="rotate(55 1424.0 314)">eval.piece_activity_weight: 1.0-&gt;0.95</text>
<text x="1456.0" y="314" transform="rotate(55 1456.0 314)">move_ordering.minor_development_bonus: 21…</text>
<text x="1488.0" y="314" transform="rotate(55 1488.0 314)">piece_activity.extended_center_bonus: 5-&gt;4</text>
<text x="1520.0" y="314" transform="rotate(55 1520.0 314)">piece_activity.extended_center_bonus: 6-&gt;5</text>
<text x="1552.0" y="314" transform="rotate(55 1552.0 314)">piece_values.bishop: 330-&gt;310</text>
<text x="1584.0" y="314" transform="rotate(55 1584.0 314)">search.tt_move_bonus: 50000-&gt;29000</text>
<text x="1616.0" y="314" transform="rotate(55 1616.0 314)">search.tt_move_bonus: 50000-&gt;48000</text>
<text x="1648.0" y="314" transform="rotate(55 1648.0 314)">search.tt_move_bonus: 50000-&gt;51000</text>
<text x="1680.0" y="314" transform="rotate(55 1680.0 314)">move_ordering.capture_attacker_penalty</text>
<text x="1712.0" y="314" transform="rotate(55 1712.0 314)">move_ordering.early_rook_penalty: 10-&gt;9</text>
<text x="1744.0" y="314" transform="rotate(55 1744.0 314)">search.mate_threshold</text>
<text x="1776.0" y="314" transform="rotate(55 1776.0 314)">eval.constants</text>
<text x="1808.0" y="314" transform="rotate(55 1808.0 314)">eval.draw_score</text>
<text x="1840.0" y="314" transform="rotate(55 1840.0 314)">eval.mate_score</text>
<text x="1872.0" y="314" transform="rotate(55 1872.0 314)">eval.missing_king_penalty</text>
<text x="1904.0" y="314" transform="rotate(55 1904.0 314)">eval.pawn_structure_weight</text>
<text x="1936.0" y="314" transform="rotate(55 1936.0 314)">eval.pawn_structure_weight: 1.0-&gt;1.05</text>
<text x="1968.0" y="314" transform="rotate(55 1968.0 314)">eval.pawn_structure_weight: 1.15-&gt;1.1</text>
<text x="2000.0" y="314" transform="rotate(55 2000.0 314)">king_safety.attacked_king_penalty: 70-&gt;162</text>
<text x="2032.0" y="314" transform="rotate(55 2032.0 314)">king_safety.pawn_shield_bonus: 7-&gt;9</text>
<text x="2064.0" y="314" transform="rotate(55 2064.0 314)">king_safety.piece_shield_bonus: 3-&gt;4</text>
<text x="2096.0" y="314" transform="rotate(55 2096.0 314)">move_ordering.capture_base_bonus: 1000-&gt;9…</text>
<text x="2128.0" y="314" transform="rotate(55 2128.0 314)">move_ordering.early_queen_penalty: 25-&gt;23</text>
<text x="2160.0" y="314" transform="rotate(55 2160.0 314)">phase</text>
<text x="2192.0" y="314" transform="rotate(55 2192.0 314)">phase.endgame_non_king_piece_threshold</text>
<text x="2224.0" y="314" transform="rotate(55 2224.0 314)">phase.opening_fullmove_limit</text>
<text x="2256.0" y="314" transform="rotate(55 2256.0 314)">piece_activity.center_bonus</text>
<text x="2288.0" y="314" transform="rotate(55 2288.0 314)">piece_activity.center_bonus: 13-&gt;12</text>
<text x="2320.0" y="314" transform="rotate(55 2320.0 314)">piece_activity.center_bonus: 14-&gt;13</text>
<text x="2352.0" y="314" transform="rotate(55 2352.0 314)">piece_activity.center_bonus: 15-&gt;17</text>
<text x="2384.0" y="314" transform="rotate(55 2384.0 314)">piece_activity.minor_center_distance_pena…</text>
<text x="2416.0" y="314" transform="rotate(55 2416.0 314)">piece_activity.minor_rank_bonus_weight: 2…</text>
<text x="2448.0" y="314" transform="rotate(55 2448.0 314)">piece_values</text>
<text x="2480.0" y="314" transform="rotate(55 2480.0 314)">piece_values.knight: 320-&gt;340</text>
<text x="2512.0" y="314" transform="rotate(55 2512.0 314)">piece_values.pawn: 100-&gt;110</text>
<text x="2544.0" y="314" transform="rotate(55 2544.0 314)">piece_values.queen</text>
<text x="2576.0" y="314" transform="rotate(55 2576.0 314)">search.default_depth</text>
<text x="2608.0" y="314" transform="rotate(55 2608.0 314)">search.max_depth</text>
</svg>
