<svg xmlns="http://www.w3.org/2000/svg" width="2648" height="426" viewBox="0 0 2648 426">
<style>
  text { font-family: -apple-system, BlinkMacSystemFont, "Segoe UI", sans-serif; font-size: 11px; fill: #20242a; }
  .title { font-size: 16px; font-weight: 650; }
  .axis { stroke: #333842; stroke-width: 1; }
  .grid { stroke: #d9dee7; stroke-width: 1; }
  .line { fill: none; stroke: #1f7a8c; stroke-width: 2.2; }
  circle { fill: #bf4e30; stroke: white; stroke-width: 1.2; }
</style>
<rect width="100%" height="100%" fill="#ffffff"/>
<text class="title" x="80" y="23">legal_rate by config</text>
<line class="grid" x1="80" y1="296.0" x2="2608" y2="296.0"/><text x="72" y="300.0" text-anchor="end">-0.08</text>
<line class="grid" x1="80" y1="244.0" x2="2608" y2="244.0"/><text x="72" y="248.0" text-anchor="end">0.152</text>
<line class="grid" x1="80" y1="192.0" x2="2608" y2="192.0"/><text x="72" y="196.0" text-anchor="end">0.384</text>
<line class="grid" x1="80" y1="140.0" x2="2608" y2="140.0"/><text x="72" y="144.0" text-anchor="end">0.616</text>
<line class="grid" x1="80" y1="88.0" x2="2608" y2="88.0"/><text x="72" y="92.0" text-anchor="end">0.848</text>
<line class="grid" x1="80" y1="36.0" x2="2608" y2="36.0"/><text x="72" y="40.0" text-anchor="end">1.08</text>
<line class="axis" x1="80" y1="36" x2="80" y2="296"/>
<line class="axis" x1="80" y1="296" x2="2608" y2="296"/>
<polyline class="line" points="80.0,53.9 112.0,53.9 144.0,53.9 176.0,53.9 208.0,53.9 240.0,53.9 272.0,53.9 304.0,53.9 336.0,53.9 368.0,53.9 400.0,53.9 432.0,53.9 464.0,53.9 496.0,53.9 528.0,53.9 560.0,53.9 592.0,53.9 624.0,53.9 656.0,53.9 688.0,53.9 720.0,53.9 752.0,53.9 784.0,53.9 816.0,53.9 848.0,53.9 880.0,53.9 912.0,53.9 944.0,53.9 976.0,53.9 1008.0,53.9 1040.0,53.9 1072.0,53.9 1104.0,53.9 1136.0,53.9 1168.0,53.9 1200.0,53.9 1232.0,53.9 1264.0,53.9 1296.0,53.9 1328.0,53.9 1360.0,53.9 1392.0,53.9 1424.0,53.9 1456.0,53.9 1488.0,53.9 1520.0,53.9 1552.0,53.9 1584.0,53.9 1616.0,53.9 1648.0,53.9 1680.0,53.9 1712.0,53.9 1744.0,53.9 1776.0,53.9 1808.0,53.9 1840.0,53.9 1872.0,53.9 1904.0,53.9 1936.0,53.9 1968.0,53.9 2000.0,53.9 2032.0,53.9 2064.0,53.9 2096.0,53.9 2128.0,53.9 2160.0,53.9 2192.0,53.9 2224.0,53.9 2256.0,53.9 2288.0,53.9 2320.0,53.9 2352.0,53.9 2384.0,53.9 2416.0,53.9 2448.0,53.9 2480.0,53.9 2512.0,53.9 2544.0,53.9 2576.0,53.9 2608.0,53.9"/>
<circle cx="80.0" cy="53.9" r="3.2"><title>search.history_order: 1</title></circle>
<circle cx="112.0" cy="53.9" r="3.2"><title>eval.king_safety_weight: 1.0-&gt;1.15: 1</title></circle>
<circle cx="144.0" cy="53.9" r="3.2"><title>move_ordering.development: 1</title></circle>
<circle cx="176.0" cy="53.9" r="3.2"><title>search.depth_time: 1</title></circle>
<circle cx="208.0" cy="53.9" r="3.2"><title>move_ordering.extended_center_bonus: 15-&gt;10: 1</title></circle>
<circle cx="240.0" cy="53.9" r="3.2"><title>king_safety.attacked_king_penalty: 1</title></circle>
<circle cx="272.0" cy="53.9" r="3.2"><title>search.mate_detection_margin: 1</title></circle>
<circle cx="304.0" cy="53.9" r="3.2"><title>search.root_mate_stop_distance: 1</title></circle>
<circle cx="336.0" cy="53.9" r="3.2"><title>move_ordering.check_bonus: 1</title></circle>
<circle cx="368.0" cy="53.9" r="3.2"><title>move_ordering.promotion_bonus: 1</title></circle>
<circle cx="400.0" cy="53.9" r="3.2"><title>search.history_bonus_power: 1</title></circle>
<circle cx="432.0" cy="53.9" r="3.2"><title>eval.king_safety_weight: 1.15-&gt;1.3: 1</title></circle>
<circle cx="464.0" cy="53.9" r="3.2"><title>move_ordering.capture_base_bonus: 1</title></circle>
<circle cx="496.0" cy="53.9" r="3.2"><title>move_ordering.capture_victim_multiplier: 1</title></circle>
<circle cx="528.0" cy="53.9" r="3.2"><title>move_ordering.center_pawn_development_bonus: 18-&gt;20: 1</title></circle>
<circle cx="560.0" cy="53.9" r="3.2"><title>search.history_bonus_scale: 1</title></circle>
<circle cx="592.0" cy="53.9" r="3.2"><title>move_ordering.center_bonus: 40-&gt;50: 1</title></circle>
<circle cx="624.0" cy="53.9" r="3.2"><title>eval.king_safety_weight: 1.15-&gt;1.1: 1</title></circle>
<circle cx="656.0" cy="53.9" r="3.2"><title>eval.material_weight: 1</title></circle>
<circle cx="688.0" cy="53.9" r="3.2"><title>eval.mobility_weight: 1.0-&gt;0.85: 1</title></circle>
<circle cx="720.0" cy="53.9" r="3.2"><title>king_safety.attacked_ring_penalty: 1-&gt;0: 1</title></circle>
<circle cx="752.0" cy="53.9" r="3.2"><title>king_safety.attacked_ring_penalty: 2-&gt;1: 1</title></circle>
<circle cx="784.0" cy="53.9" r="3.2"><title>move_ordering.capture_base_bonus: 1000-&gt;1150: 1</title></circle>
<circle cx="816.0" cy="53.9" r="3.2"><title>move_ordering.castling_bonus: 1</title></circle>
<circle cx="848.0" cy="53.9" r="3.2"><title>move_ordering.center_pawn_development_bonus: 1</title></circle>
<circle cx="880.0" cy="53.9" r="3.2"><title>move_ordering.early_queen_penalty: 1</title></circle>
<circle cx="912.0" cy="53.9" r="3.2"><title>move_ordering.early_rook_penalty: 1</title></circle>
<circle cx="944.0" cy="53.9" r="3.2"><title>move_ordering.minor_development_bonus: 30-&gt;21: 1</title></circle>
<circle cx="976.0" cy="53.9" r="3.2"><title>move_ordering.tactical: 1</title></circle>
<circle cx="1008.0" cy="53.9" r="3.2"><title>pawn_structure.advance_bonus_per_rank: 3-&gt;4: 1</title></circle>
<circle cx="1040.0" cy="53.9" r="3.2"><title>pawn_structure.doubled_penalty: 1</title></circle>
<circle cx="1072.0" cy="53.9" r="3.2"><title>pawn_structure.isolated_penalty: 1</title></circle>
<circle cx="1104.0" cy="53.9" r="3.2"><title>piece_activity.center_bonus: 15-&gt;14: 1</title></circle>
<circle cx="1136.0" cy="53.9" r="3.2"><title>piece_activity.extended_center_bonus: 1-&gt;0: 1</title></circle>
<circle cx="1168.0" cy="53.9" r="3.2"><title>piece_activity.extended_center_bonus: 2-&gt;1: 1</title></circle>
<circle cx="1200.0" cy="53.9" r="3.2"><title>piece_activity.extended_center_bonus: 3-&gt;2: 1</title></circle>
<circle cx="1232.0" cy="53.9" r="3.2"><title>piece_activity.extended_center_bonus: 4-&gt;3: 1</title></circle>
<circle cx="1264.0" cy="53.9" r="3.2"><title>piece_activity.minor_rank_bonus_weight: 1</title></circle>
<circle cx="1296.0" cy="53.9" r="3.2"><title>search.tt_move_bonus: 50000-&gt;49000: 1</title></circle>
<circle cx="1328.0" cy="53.9" r="3.2"><title>search.tt_move_bonus: 50000-&gt;52000: 1</title></circle>
<circle cx="1360.0" cy="53.9" r="3.2"><title>eval.mobility_weight: 0.85-&gt;0.7: 1</title></circle>
<circle cx="1392.0" cy="53.9" r="3.2"><title>eval.piece_activity_weight: 0.85-&gt;0.8: 1</title></circle>
<circle cx="1424.0" cy="53.9" r="3.2"><title>eval.piece_activity_weight: 1.0-&gt;0.95: 1</title></circle>
<circle cx="1456.0" cy="53.9" r="3.2"><title>move_ordering.minor_development_bonus: 21-&gt;12: 1</title></circle>
<circle cx="1488.0" cy="53.9" r="3.2"><title>piece_activity.extended_center_bonus: 5-&gt;4: 1</title></circle>
<circle cx="1520.0" cy="53.9" r="3.2"><title>piece_activity.extended_center_bonus: 6-&gt;5: 1</title></circle>
<circle cx="1552.0" cy="53.9" r="3.2"><title>piece_values.bishop: 330-&gt;310: 1</title></circle>
<circle cx="1584.0" cy="53.9" r="3.2"><title>search.tt_move_bonus: 50000-&gt;29000: 1</title></circle>
<circle cx="1616.0" cy="53.9" r="3.2"><title>search.tt_move_bonus: 50000-&gt;48000: 1</title></circle>
<circle cx="1648.0" cy="53.9" r="3.2"><title>search.tt_move_bonus: 50000-&gt;51000: 1</title></circle>
<circle cx="1680.0" cy="53.9" r="3.2"><title>move_ordering.capture_attacker_penalty: 1</title></circle>
<circle cx="1712.0" cy="53.9" r="3.2"><title>move_ordering.early_rook_penalty: 10-&gt;9: 1</title></circle>
<circle cx="1744.0" cy="53.9" r="3.2"><title>search.mate_threshold: 1</title></circle>
<circle cx="1776.0" cy="53.9" r="3.2"><title>eval.constants: 1</title></circle>
<circle cx="1808.0" cy="53.9" r="3.2"><title>eval.draw_score: 1</title></circle>
<circle cx="1840.0" cy="53.9" r="3.2"><title>eval.mate_score: 1</title></circle>
<circle cx="1872.0" cy="53.9" r="3.2"><title>eval.missing_king_penalty: 1</title></circle>
<circle cx="1904.0" cy="53.9" r="3.2"><title>eval.pawn_structure_weight: 1</title></circle>
<circle cx="1936.0" cy="53.9" r="3.2"><title>eval.pawn_structure_weight: 1.0-&gt;1.05: 1</title></circle>
<circle cx="1968.0" cy="53.9" r="3.2"><title>eval.pawn_structure_weight: 1.15-&gt;1.1: 1</title></circle>
<circle cx="2000.0" cy="53.9" r="3.2"><title>king_safety.attacked_king_penalty: 70-&gt;162: 1</title></circle>
<circle cx="2032.0" cy="53.9" r="3.2"><title>king_safety.pawn_shield_bonus: 7-&gt;9: 1</title></circle>
<circle cx="2064.0" cy="53.9" r="3.2"><title>king_safety.piece_shield_bonus: 3-&gt;4: 1</title></circle>
<circle cx="2096.0" cy="53.9" r="3.2"><title>move_ordering.capture_base_bonus: 1000-&gt;950: 1</title></circle>
<circle cx="2128.0" cy="53.9" r="3.2"><title>move_ordering.early_queen_penalty: 25-&gt;23: 1</title></circle>
<circle cx="2160.0" cy="53.9" r="3.2"><title>phase: 1</title></circle>
<circle cx="2192.0" cy="53.9" r="3.2"><title>phase.endgame_non_king_piece_threshold: 1</title></circle>
<circle cx="2224.0" cy="53.9" r="3.2"><title>phase.opening_fullmove_limit: 1</title></circle>
<circle cx="2256.0" cy="53.9" r="3.2"><title>piece_activity.center_bonus: 1</title></circle>
<circle cx="2288.0" cy="53.9" r="3.2"><title>piece_activity.center_bonus: 13-&gt;12: 1</title></circle>
<circle cx="2320.0" cy="53.9" r="3.2"><title>piece_activity.center_bonus: 14-&gt;13: 1</title></circle>
<circle cx="2352.0" cy="53.9" r="3.2"><title>piece_activity.center_bonus: 15-&gt;17: 1</title></circle>
<circle cx="2384.0" cy="53.9" r="3.2"><title>piece_activity.minor_center_distance_penalty: 2-&gt;1: 1</title></circle>
<circle cx="2416.0" cy="53.9" r="3.2"><title>piece_activity.minor_rank_bonus_weight: 2-&gt;1: 1</title></circle>
<circle cx="2448.0" cy="53.9" r="3.2"><title>piece_values: 1</title></circle>
<circle cx="2480.0" cy="53.9" r="3.2"><title>piece_values.knight: 320-&gt;340: 1</title></circle>
<circle cx="2512.0" cy="53.9" r="3.2"><title>piece_values.pawn: 100-&gt;110: 1</title></circle>
<circle cx="2544.0" cy="53.9" r="3.2"><title>piece_values.queen: 1</title></circle>
<circle cx="2576.0" cy="53.9" r="3.2"><title>search.default_depth: 1</title></circle>
<circle cx="2608.0" cy="53.9" r="3.2"><title>search.max_depth: 1</title></circle>
<text x="80.0" y="314" transform="rotate(55 80.0 314)">search.history_order</text>
<text x="112.0" y="314" transform="rotate(55 112.0 314)">eval.king_safety_weight: 1.0-&gt;1.15</text>
<text x="144.0" y="314" transform="rotate(55 144.0 314)">move_ordering.development</text>
<text x="176.0" y="314" transform="rotate(55 176.0 314)">search.depth_time</text>
<text x="208.0" y="314" transform="rotate(55 208.0 314)">move_ordering.extended_center_bonus: 15-&gt;…</text>
<text x="240.0" y="314" transform="rotate(55 240.0 314)">king_safety.attacked_king_penalty</text>
<text x="272.0" y="314" transform="rotate(55 272.0 314)">search.mate_detection_margin</text>
<text x="304.0" y="314" transform="rotate(55 304.0 314)">search.root_mate_stop_distance</text>
<text x="336.0" y="314" transform="rotate(55 336.0 314)">move_ordering.check_bonus</text>
<text x="368.0" y="314" transform="rotate(55 368.0 314)">move_ordering.promotion_bonus</text>
<text x="400.0" y="314" transform="rotate(55 400.0 314)">search.history_bonus_power</text>
<text x="432.0" y="314" transform="rotate(55 432.0 314)">eval.king_safety_weight: 1.15-&gt;1.3</text>
<text x="464.0" y="314" transform="rotate(55 464.0 314)">move_ordering.capture_base_bonus</text>
<text x="496.0" y="314" transform="rotate(55 496.0 314)">move_ordering.capture_victim_multiplier</text>
<text x="528.0" y="314" transform="rotate(55 528.0 314)">move_ordering.center_pawn_development_bon…</text>
<text x="560.0" y="314" transform="rotate(55 560.0 314)">search.history_bonus_scale</text>
<text x="592.0" y="314" transform="rotate(55 592.0 314)">move_ordering.center_bonus: 40-&gt;50</text>
<text x="624.0" y="314" transform="rotate(55 624.0 314)">eval.king_safety_weight: 1.15-&gt;1.1</text>
<text x="656.0" y="314" transform="rotate(55 656.0 314)">eval.material_weight</text>
<text x="688.0" y="314" transform="rotate(55 688.0 314)">eval.mobility_weight: 1.0-&gt;0.85</text>
<text x="720.0" y="314" transform="rotate(55 720.0 314)">king_safety.attacked_ring_penalty: 1-&gt;0</text>
<text x="752.0" y="314" transform="rotate(55 752.0 314)">king_safety.attacked_ring_penalty: 2-&gt;1</text>
<text x="784.0" y="314" transform="rotate(55 784.0 314)">move_ordering.capture_base_bonus: 1000-&gt;1…</text>
<text x="816.0" y="314" transform="rotate(55 816.0 314)">move_ordering.castling_bonus</text>
<text x="848.0" y="314" transform="rotate(55 848.0 314)">move_ordering.center_pawn_development_bon…</text>
<text x="880.0" y="314" transform="rotate(55 880.0 314)">move_ordering.early_queen_penalty</text>
<text x="912.0" y="314" transform="rotate(55 912.0 314)">move_ordering.early_rook_penalty</text>
<text x="944.0" y="314" transform="rotate(55 944.0 314)">move_ordering.minor_development_bonus: 30…</text>
<text x="976.0" y="314" transform="rotate(55 976.0 314)">move_ordering.tactical</text>
<text x="1008.0" y="314" transform="rotate(55 1008.0 314)">pawn_structure.advance_bonus_per_rank: 3-…</text>
<text x="1040.0" y="314" transform="rotate(55 1040.0 314)">pawn_structure.doubled_penalty</text>
<text x="1072.0" y="314" transform="rotate(55 1072.0 314)">pawn_structure.isolated_penalty</text>
<text x="1104.0" y="314" transform="rotate(55 1104.0 314)">piece_activity.center_bonus: 15-&gt;14</text>
<text x="1136.0" y="314" transform="rotate(55 1136.0 314)">piece_activity.extended_center_bonus: 1-&gt;0</text>
<text x="1168.0" y="314" transform="rotate(55 1168.0 314)">piece_activity.extended_center_bonus: 2-&gt;1</text>
<text x="1200.0" y="314" transform="rotate(55 1200.0 314)">piece_activity.extended_center_bonus: 3-&gt;2</text>
<text x="1232.0" y="314" transform="rotate(55 1232.0 314)">piece_activity.extended_center_bonus: 4-&gt;3</text>
<text x="1264.0" y="314" transform="rotate(55 1264.0 314)">piece_activity.minor_rank_bonus_weight</text>
<text x="1296.0" y="314" transform="rotate(55 1296.0 314)">search.tt_move_bonus: 50000-&gt;49000</text>
<text x="1328.0" y="314" transform="rotate(55 1328.0 314)">search.tt_move_bonus: 50000-&gt;52000</text>
<text x="1360.0" y="314" transform="rotate(55 1360.0 314)">eval.mobility_weight: 0.85-&gt;0.7</text>
<text x="1392.0" y="314" transform="rotate(55 1392.0 314)">eval.piece_activity_weight: 0.85-&gt;0.8</text>
<text x="1424.0" y="314" transform="rotate(55 1424.0 314)">eval.piece_activity_weight: 1.0-&gt;0.95</text>
<text x="1456.0" y="314" transform="rotate(55 1456.0 314)">move_ordering.minor_development_bonus: 21…</text>
<text x="1488.0" y="314" transform="rotate(55 1488.0 314)">piece_activity.extended_center_bonus: 5-&gt;4</text>
<text x="1520.0" y="314" transform="rotate(55 1520.0 314)">piece_activity.extended_center_bonus: 6-&gt;5</text>
<text x="1552.0" y="314" transform="rotate(55 1552.0 314)">piece_values.bishop: 330-&gt;310</text>
<text x="1584.0" y="314" transform="rotate(55 1584.0 314)">search.tt_move_bonus: 50000-&gt;29000</text>
<text x="1616.0" y="314" transform="rotate(55 1616.0 314)">search.tt_move_bonus: 50000-&gt;48000</text>
<text x="1648.0" y="314" transform="rotate(55 1648.0 314)">search.tt_move_bonus: 50000-&gt;51000</text>
<text x="1680.0" y="314" transform="rotate(55 1680.0 314)">move_ordering.capture_attacker_penalty</text>
<text x="1712.0" y="314" transform="rotate(55 1712.0 314)">move_ordering.early_rook_penalty: 10-&gt;9</text>
<text x="1744.0" y="314" transform="rotate(55 1744.0 314)">search.mate_threshold</text>
<text x="1776.0" y="314" transform="rotate(55 1776.0 314)">eval.constants</text>
<text x="1808.0" y="314" transform="rotate(55 1808.0 314)">eval.draw_score</text>
<text x="1840.0" y="314" transform="rotate(55 1840.0 314)">eval.mate_score</text>
<text x="1872.0" y="314" transform="rotate(55 1872.0 314)">eval.missing_king_penalty</text>
<text x="1904.0" y="314" transform="rotate(55 1904.0 314)">eval.pawn_structure_weight</text>
<text x="1936.0" y="314" transform="rotate(55 1936.0 314)">eval.pawn_structure_weight: 1.0-&gt;1.05</text>
<text x="1968.0" y="314" transform="rotate(55 1968.0 314)">eval.pawn_structure_weight: 1.15-&gt;1.1</text>
<text x="2000.0" y="314" transform="rotate(55 2000.0 314)">king_safety.attacked_king_penalty: 70-&gt;162</text>
<text x="2032.0" y="314" transform="rotate(55 2032.0 314)">king_safety.pawn_shield_bonus: 7-&gt;9</text>
<text x="2064.0" y="314" transform="rotate(55 2064.0 314)">king_safety.piece_shield_bonus: 3-&gt;4</text>
<text x="2096.0" y="314" transform="rotate(55 2096.0 314)">move_ordering.capture_base_bonus: 1000-&gt;9…</text>
<text x="2128.0" y="314" transform="rotate(55 2128.0 314)">move_ordering.early_queen_penalty: 25-&gt;23</text>
<text x="2160.0" y="314" transform="rotate(55 2160.0 314)">phase</text>
<text x="2192.0" y="314" transform="rotate(55 2192.0 314)">phase.endgame_non_king_piece_threshold</text>
<text x="2224.0" y="314" transform="rotate(55 2224.0 314)">phase.opening_fullmove_limit</text>
<text x="2256.0" y="314" transform="rotate(55 2256.0 314)">piece_activity.center_bonus</text>
<text x="2288.0" y="314" transform="rotate(55 2288.0 314)">piece_activity.center_bonus: 13-&gt;12</text>
<text x="2320.0" y="314" transform="rotate(55 2320.0 314)">piece_activity.center_bonus: 14-&gt;13</text>
<text x="2352.0" y="314" transform="rotate(55 2352.0 314)">piece_activity.center_bonus: 15-&gt;17</text>
<text x="2384.0" y="314" transform="rotate(55 2384.0 314)">piece_activity.minor_center_distance_pena…</text>
<text x="2416.0" y="314" transform="rotate(55 2416.0 314)">piece_activity.minor_rank_bonus_weight: 2…</text>
<text x="2448.0" y="314" transform="rotate(55 2448.0 314)">piece_values</text>
<text x="2480.0" y="314" transform="rotate(55 2480.0 314)">piece_values.knight: 320-&gt;340</text>
<text x="2512.0" y="314" transform="rotate(55 2512.0 314)">piece_values.pawn: 100-&gt;110</text>
<text x="2544.0" y="314" transform="rotate(55 2544.0 314)">piece_values.queen</text>
<text x="2576.0" y="314" transform="rotate(55 2576.0 314)">search.default_depth</text>
<text x="2608.0" y="314" transform="rotate(55 2608.0 314)">search.max_depth</text>
</svg>
