<svg xmlns="http://www.w3.org/2000/svg" width="2648" height="426" viewBox="0 0 2648 426">
<style>
  text { font-family: -apple-system, BlinkMacSystemFont, "Segoe UI", sans-serif; font-size: 11px; fill: #20242a; }
  .title { font-size: 16px; font-weight: 650; }
  .axis { stroke: #333842; stroke-width: 1; }
  .grid { stroke: #d9dee7; stroke-width: 1; }
  .line { fill: none; stroke: #1f7a8c; stroke-width: 2.2; }
  circle { fill: #bf4e30; stroke: white; stroke-width: 1.2; }
</style>
<rect width="100%" height="100%" fill="#ffffff"/>
<text class="title" x="80" y="23">prescreen_score_difference by config</text>
<line class="grid" x1="80" y1="296.0" x2="2608" y2="296.0"/><text x="72" y="300.0" text-anchor="end">-0.01264</text>
<line class="grid" x1="80" y1="244.0" x2="2608" y2="244.0"/><text x="72" y="248.0" text-anchor="end">-0.00751</text>
<line class="grid" x1="80" y1="192.0" x2="2608" y2="192.0"/><text x="72" y="196.0" text-anchor="end">-0.002383</text>
<line class="grid" x1="80" y1="140.0" x2="2608" y2="140.0"/><text x="72" y="144.0" text-anchor="end">0.002744</text>
<line class="grid" x1="80" y1="88.0" x2="2608" y2="88.0"/><text x="72" y="92.0" text-anchor="end">0.007871</text>
<line class="grid" x1="80" y1="36.0" x2="2608" y2="36.0"/><text x="72" y="40.0" text-anchor="end">0.013</text>
<line class="axis" x1="80" y1="36" x2="80" y2="296"/>
<line class="axis" x1="80" y1="296" x2="2608" y2="296"/>
<polyline class="line" points="80.0,176.9 112.0,161.7 144.0,154.2 176.0,147.0 208.0,167.8 240.0,167.8 272.0,158.6 304.0,141.5 336.0,173.4 368.0,151.2 400.0,214.6 432.0,147.0 464.0,158.6 496.0,107.0 528.0,175.6 560.0,167.8 592.0,169.8 624.0,53.9 656.0,167.8 688.0,159.8 720.0,165.6 752.0,165.6 784.0,159.3 816.0,134.7 848.0,167.8 880.0,167.8 912.0,167.8 944.0,167.8 976.0,191.4 1008.0,173.2 1040.0,167.8 1072.0,167.8 1104.0,167.6 1136.0,164.6 1168.0,164.6 1200.0,164.7 1232.0,164.7 1264.0,167.8 1296.0,201.9 1328.0,278.1 1360.0,155.4 1392.0,167.7 1424.0,166.6 1456.0,187.1 1488.0,164.9 1520.0,164.9 1552.0,167.8 1584.0,156.7 1616.0,171.2 1648.0,112.4 1680.0,213.3 1712.0,178.1 1744.0,167.8 1776.0,167.8 1808.0,167.8 1840.0,167.8 1872.0,167.8 1904.0,167.8 1936.0,167.8 1968.0,167.2 2000.0,163.3 2032.0,163.9 2064.0,168.4 2096.0,199.1 2128.0,202.4 2160.0,167.8 2192.0,167.8 2224.0,167.8 2256.0,167.8 2288.0,168.3 2320.0,166.8 2352.0,167.8 2384.0,169.0 2416.0,171.9 2448.0,167.8 2480.0,167.8 2512.0,173.4 2544.0,167.8 2576.0,167.8 2608.0,167.8"/>
<circle cx="80.0" cy="176.9" r="3.2"><title>search.history_order: -0.000890805</title></circle>
<circle cx="112.0" cy="161.7" r="3.2"><title>eval.king_safety_weight: 1.0-&gt;1.15: 0.000604649</title></circle>
<circle cx="144.0" cy="154.2" r="3.2"><title>move_ordering.development: 0.00134156</title></circle>
<circle cx="176.0" cy="147.0" r="3.2"><title>search.depth_time: 0.00205794</title></circle>
<circle cx="208.0" cy="167.8" r="3.2"><title>move_ordering.extended_center_bonus: 15-&gt;10: 0</title></circle>
<circle cx="240.0" cy="167.8" r="3.2"><title>king_safety.attacked_king_penalty: 0</title></circle>
<circle cx="272.0" cy="158.6" r="3.2"><title>search.mate_detection_margin: 0.000909623</title></circle>
<circle cx="304.0" cy="141.5" r="3.2"><title>search.root_mate_stop_distance: 0.00259431</title></circle>
<circle cx="336.0" cy="173.4" r="3.2"><title>move_ordering.check_bonus: -0.0005492</title></circle>
<circle cx="368.0" cy="151.2" r="3.2"><title>move_ordering.promotion_bonus: 0.00164484</title></circle>
<circle cx="400.0" cy="214.6" r="3.2"><title>search.history_bonus_power: -0.00460947</title></circle>
<circle cx="432.0" cy="147.0" r="3.2"><title>eval.king_safety_weight: 1.15-&gt;1.3: 0.00205422</title></circle>
<circle cx="464.0" cy="158.6" r="3.2"><title>move_ordering.capture_base_bonus: 0.000908945</title></circle>
<circle cx="496.0" cy="107.0" r="3.2"><title>move_ordering.capture_victim_multiplier: 0.00600104</title></circle>
<circle cx="528.0" cy="175.6" r="3.2"><title>move_ordering.center_pawn_development_bonus: 18-&gt;20: -0.000769157</title></circle>
<circle cx="560.0" cy="167.8" r="3.2"><title>search.history_bonus_scale: 0</title></circle>
<circle cx="592.0" cy="169.8" r="3.2"><title>move_ordering.center_bonus: 40-&gt;50: -0.000192194</title></circle>
<circle cx="624.0" cy="53.9" r="3.2"><title>eval.king_safety_weight: 1.15-&gt;1.1: 0.0112306</title></circle>
<circle cx="656.0" cy="167.8" r="3.2"><title>eval.material_weight: 0</title></circle>
<circle cx="688.0" cy="159.8" r="3.2"><title>eval.mobility_weight: 1.0-&gt;0.85: 0.000795448</title></circle>
<circle cx="720.0" cy="165.6" r="3.2"><title>king_safety.attacked_ring_penalty: 1-&gt;0: 0.000220467</title></circle>
<circle cx="752.0" cy="165.6" r="3.2"><title>king_safety.attacked_ring_penalty: 2-&gt;1: 0.000217196</title></circle>
<circle cx="784.0" cy="159.3" r="3.2"><title>move_ordering.capture_base_bonus: 1000-&gt;1150: 0.000844752</title></circle>
<circle cx="816.0" cy="134.7" r="3.2"><title>move_ordering.castling_bonus: 0.00327054</title></circle>
<circle cx="848.0" cy="167.8" r="3.2"><title>move_ordering.center_pawn_development_bonus: 0</title></circle>
<circle cx="880.0" cy="167.8" r="3.2"><title>move_ordering.early_queen_penalty: 0</title></circle>
<circle cx="912.0" cy="167.8" r="3.2"><title>move_ordering.early_rook_penalty: 0</title></circle>
<circle cx="944.0" cy="167.8" r="3.2"><title>move_ordering.minor_development_bonus: 30-&gt;21: 0</title></circle>
<circle cx="976.0" cy="191.4" r="3.2"><title>move_ordering.tactical: -0.00232279</title></circle>
<circle cx="1008.0" cy="173.2" r="3.2"><title>pawn_structure.advance_bonus_per_rank: 3-&gt;4: -0.000527106</title></circle>
<circle cx="1040.0" cy="167.8" r="3.2"><title>pawn_structure.doubled_penalty: 0</title></circle>
<circle cx="1072.0" cy="167.8" r="3.2"><title>pawn_structure.isolated_penalty: 0</title></circle>
<circle cx="1104.0" cy="167.6" r="3.2"><title>piece_activity.center_bonus: 15-&gt;14: 2.43366e-05</title></circle>
<circle cx="1136.0" cy="164.6" r="3.2"><title>piece_activity.extended_center_bonus: 1-&gt;0: 0.000316415</title></circle>
<circle cx="1168.0" cy="164.6" r="3.2"><title>piece_activity.extended_center_bonus: 2-&gt;1: 0.000315026</title></circle>
<circle cx="1200.0" cy="164.7" r="3.2"><title>piece_activity.extended_center_bonus: 3-&gt;2: 0.000313627</title></circle>
<circle cx="1232.0" cy="164.7" r="3.2"><title>piece_activity.extended_center_bonus: 4-&gt;3: 0.000312217</title></circle>
<circle cx="1264.0" cy="167.8" r="3.2"><title>piece_activity.minor_rank_bonus_weight: 0</title></circle>
<circle cx="1296.0" cy="201.9" r="3.2"><title>search.tt_move_bonus: 50000-&gt;49000: -0.00335527</title></circle>
<circle cx="1328.0" cy="278.1" r="3.2"><title>search.tt_move_bonus: 50000-&gt;52000: -0.010869</title></circle>
<circle cx="1360.0" cy="155.4" r="3.2"><title>eval.mobility_weight: 0.85-&gt;0.7: 0.00122448</title></circle>
<circle cx="1392.0" cy="167.7" r="3.2"><title>eval.piece_activity_weight: 0.85-&gt;0.8: 1.25914e-05</title></circle>
<circle cx="1424.0" cy="166.6" r="3.2"><title>eval.piece_activity_weight: 1.0-&gt;0.95: 0.000125189</title></circle>
<circle cx="1456.0" cy="187.1" r="3.2"><title>move_ordering.minor_development_bonus: 21-&gt;12: -0.00189988</title></circle>
<circle cx="1488.0" cy="164.9" r="3.2"><title>piece_activity.extended_center_bonus: 5-&gt;4: 0.000290312</title></circle>
<circle cx="1520.0" cy="164.9" r="3.2"><title>piece_activity.extended_center_bonus: 6-&gt;5: 0.000289468</title></circle>
<circle cx="1552.0" cy="167.8" r="3.2"><title>piece_values.bishop: 330-&gt;310: 0</title></circle>
<circle cx="1584.0" cy="156.7" r="3.2"><title>search.tt_move_bonus: 50000-&gt;29000: 0.00109914</title></circle>
<circle cx="1616.0" cy="171.2" r="3.2"><title>search.tt_move_bonus: 50000-&gt;48000: -0.000335831</title></circle>
<circle cx="1648.0" cy="112.4" r="3.2"><title>search.tt_move_bonus: 50000-&gt;51000: 0.00546365</title></circle>
<circle cx="1680.0" cy="213.3" r="3.2"><title>move_ordering.capture_attacker_penalty: -0.00447805</title></circle>
<circle cx="1712.0" cy="178.1" r="3.2"><title>move_ordering.early_rook_penalty: 10-&gt;9: -0.00100902</title></circle>
<circle cx="1744.0" cy="167.8" r="3.2"><title>search.mate_threshold: 0</title></circle>
<circle cx="1776.0" cy="167.8" r="3.2"><title>eval.constants: 0</title></circle>
<circle cx="1808.0" cy="167.8" r="3.2"><title>eval.draw_score: 0</title></circle>
<circle cx="1840.0" cy="167.8" r="3.2"><title>eval.mate_score: 0</title></circle>
<circle cx="1872.0" cy="167.8" r="3.2"><title>eval.missing_king_penalty: 0</title></circle>
<circle cx="1904.0" cy="167.8" r="3.2"><title>eval.pawn_structure_weight: 0</title></circle>
<circle cx="1936.0" cy="167.8" r="3.2"><title>eval.pawn_structure_weight: 1.0-&gt;1.05: 1.28083e-09</title></circle>
<circle cx="1968.0" cy="167.2" r="3.2"><title>eval.pawn_structure_weight: 1.15-&gt;1.1: 5.959e-05</title></circle>
<circle cx="2000.0" cy="163.3" r="3.2"><title>king_safety.attacked_king_penalty: 70-&gt;162: 0.000450732</title></circle>
<circle cx="2032.0" cy="163.9" r="3.2"><title>king_safety.pawn_shield_bonus: 7-&gt;9: 0.000389858</title></circle>
<circle cx="2064.0" cy="168.4" r="3.2"><title>king_safety.piece_shield_bonus: 3-&gt;4: -5.54526e-05</title></circle>
<circle cx="2096.0" cy="199.1" r="3.2"><title>move_ordering.capture_base_bonus: 1000-&gt;950: -0.00308099</title></circle>
<circle cx="2128.0" cy="202.4" r="3.2"><title>move_ordering.early_queen_penalty: 25-&gt;23: -0.00341191</title></circle>
<circle cx="2160.0" cy="167.8" r="3.2"><title>phase: 0</title></circle>
<circle cx="2192.0" cy="167.8" r="3.2"><title>phase.endgame_non_king_piece_threshold: 0</title></circle>
<circle cx="2224.0" cy="167.8" r="3.2"><title>phase.opening_fullmove_limit: 0</title></circle>
<circle cx="2256.0" cy="167.8" r="3.2"><title>piece_activity.center_bonus: 0</title></circle>
<circle cx="2288.0" cy="168.3" r="3.2"><title>piece_activity.center_bonus: 13-&gt;12: -5.06296e-05</title></circle>
<circle cx="2320.0" cy="166.8" r="3.2"><title>piece_activity.center_bonus: 14-&gt;13: 0.000102331</title></circle>
<circle cx="2352.0" cy="167.8" r="3.2"><title>piece_activity.center_bonus: 15-&gt;17: 0</title></circle>
<circle cx="2384.0" cy="169.0" r="3.2"><title>piece_activity.minor_center_distance_penalty: 2-&gt;1: -0.000118422</title></circle>
<circle cx="2416.0" cy="171.9" r="3.2"><title>piece_activity.minor_rank_bonus_weight: 2-&gt;1: -0.000397872</title></circle>
<circle cx="2448.0" cy="167.8" r="3.2"><title>piece_values: 0</title></circle>
<circle cx="2480.0" cy="167.8" r="3.2"><title>piece_values.knight: 320-&gt;340: 0</title></circle>
<circle cx="2512.0" cy="173.4" r="3.2"><title>piece_values.pawn: 100-&gt;110: -0.000553474</title></circle>
<circle cx="2544.0" cy="167.8" r="3.2"><title>piece_values.queen: 0</title></circle>
<circle cx="2576.0" cy="167.8" r="3.2"><title>search.default_depth: 0</title></circle>
<circle cx="2608.0" cy="167.8" r="3.2"><title>search.max_depth: 0</title></circle>
<text x="80.0" y="314" transform="rotate(55 80.0 314)">search.history_order</text>
<text x="112.0" y="314" transform="rotate(55 112.0 314)">eval.king_safety_weight: 1.0-&gt;1.15</text>
<text x="144.0" y="314" transform="rotate(55 144.0 314)">move_ordering.development</text>
<text x="176.0" y="314" transform="rotate(55 176.0 314)">search.depth_time</text>
<text x="208.0" y="314" transform="rotate(55 208.0 314)">move_ordering.extended_center_bonus: 15-&gt;…</text>
<text x="240.0" y="314" transform="rotate(55 240.0 314)">king_safety.attacked_king_penalty</text>
<text x="272.0" y="314" transform="rotate(55 272.0 314)">search.mate_detection_margin</text>
<text x="304.0" y="314" transform="rotate(55 304.0 314)">search.root_mate_stop_distance</text>
<text x="336.0" y="314" transform="rotate(55 336.0 314)">move_ordering.check_bonus</text>
<text x="368.0" y="314" transform="rotate(55 368.0 314)">move_ordering.promotion_bonus</text>
<text x="400.0" y="314" transform="rotate(55 400.0 314)">search.history_bonus_power</text>
<text x="432.0" y="314" transform="rotate(55 432.0 314)">eval.king_safety_weight: 1.15-&gt;1.3</text>
<text x="464.0" y="314" transform="rotate(55 464.0 314)">move_ordering.capture_base_bonus</text>
<text x="496.0" y="314" transform="rotate(55 496.0 314)">move_ordering.capture_victim_multiplier</text>
<text x="528.0" y="314" transform="rotate(55 528.0 314)">move_ordering.center_pawn_development_bon…</text>
<text x="560.0" y="314" transform="rotate(55 560.0 314)">search.history_bonus_scale</text>
<text x="592.0" y="314" transform="rotate(55 592.0 314)">move_ordering.center_bonus: 40-&gt;50</text>
<text x="624.0" y="314" transform="rotate(55 624.0 314)">eval.king_safety_weight: 1.15-&gt;1.1</text>
<text x="656.0" y="314" transform="rotate(55 656.0 314)">eval.material_weight</text>
<text x="688.0" y="314" transform="rotate(55 688.0 314)">eval.mobility_weight: 1.0-&gt;0.85</text>
<text x="720.0" y="314" transform="rotate(55 720.0 314)">king_safety.attacked_ring_penalty: 1-&gt;0</text>
<text x="752.0" y="314" transform="rotate(55 752.0 314)">king_safety.attacked_ring_penalty: 2-&gt;1</text>
<text x="784.0" y="314" transform="rotate(55 784.0 314)">move_ordering.capture_base_bonus: 1000-&gt;1…</text>
<text x="816.0" y="314" transform="rotate(55 816.0 314)">move_ordering.castling_bonus</text>
<text x="848.0" y="314" transform="rotate(55 848.0 314)">move_ordering.center_pawn_development_bon…</text>
<text x="880.0" y="314" transform="rotate(55 880.0 314)">move_ordering.early_queen_penalty</text>
<text x="912.0" y="314" transform="rotate(55 912.0 314)">move_ordering.early_rook_penalty</text>
<text x="944.0" y="314" transform="rotate(55 944.0 314)">move_ordering.minor_development_bonus: 30…</text>
<text x="976.0" y="314" transform="rotate(55 976.0 314)">move_ordering.tactical</text>
<text x="1008.0" y="314" transform="rotate(55 1008.0 314)">pawn_structure.advance_bonus_per_rank: 3-…</text>
<text x="1040.0" y="314" transform="rotate(55 1040.0 314)">pawn_structure.doubled_penalty</text>
<text x="1072.0" y="314" transform="rotate(55 1072.0 314)">pawn_structure.isolated_penalty</text>
<text x="1104.0" y="314" transform="rotate(55 1104.0 314)">piece_activity.center_bonus: 15-&gt;14</text>
<text x="1136.0" y="314" transform="rotate(55 1136.0 314)">piece_activity.extended_center_bonus: 1-&gt;0</text>
<text x="1168.0" y="314" transform="rotate(55 1168.0 314)">piece_activity.extended_center_bonus: 2-&gt;1</text>
<text x="1200.0" y="314" transform="rotate(55 1200.0 314)">piece_activity.extended_center_bonus: 3-&gt;2</text>
<text x="1232.0" y="314" transform="rotate(55 1232.0 314)">piece_activity.extended_center_bonus: 4-&gt;3</text>
<text x="1264.0" y="314" transform="rotate(55 1264.0 314)">piece_activity.minor_rank_bonus_weight</text>
<text x="1296.0" y="314" transform="rotate(55 1296.0 314)">search.tt_move_bonus: 50000-&gt;49000</text>
<text x="1328.0" y="314" transform="rotate(55 1328.0 314)">search.tt_move_bonus: 50000-&gt;52000</text>
<text x="1360.0" y="314" transform="rotate(55 1360.0 314)">eval.mobility_weight: 0.85-&gt;0.7</text>
<text x="1392.0" y="314" transform="rotate(55 1392.0 314)">eval.piece_activity_weight: 0.85-&gt;0.8</text>
<text x="1424.0" y="314" transform="rotate(55 1424.0 314)">eval.piece_activity_weight: 1.0-&gt;0.95</text>
<text x="1456.0" y="314" transform="rotate(55 1456.0 314)">move_ordering.minor_development_bonus: 21…</text>
<text x="1488.0" y="314" transform="rotate(55 1488.0 314)">piece_activity.extended_center_bonus: 5-&gt;4</text>
<text x="1520.0" y="314" transform="rotate(55 1520.0 314)">piece_activity.extended_center_bonus: 6-&gt;5</text>
<text x="1552.0" y="314" transform="rotate(55 1552.0 314)">piece_values.bishop: 330-&gt;310</text>
<text x="1584.0" y="314" transform="rotate(55 1584.0 314)">search.tt_move_bonus: 50000-&gt;29000</text>
<text x="1616.0" y="314" transform="rotate(55 1616.0 314)">search.tt_move_bonus: 50000-&gt;48000</text>
<text x="1648.0" y="314" transform="rotate(55 1648.0 314)">search.tt_move_bonus: 50000-&gt;51000</text>
<text x="1680.0" y="314" transform="rotate(55 1680.0 314)">move_ordering.capture_attacker_penalty</text>
<text x="1712.0" y="314" transform="rotate(55 1712.0 314)">move_ordering.early_rook_penalty: 10-&gt;9</text>
<text x="1744.0" y="314" transform="rotate(55 1744.0 314)">search.mate_threshold</text>
<text x="1776.0" y="314" transform="rotate(55 1776.0 314)">eval.constants</text>
<text x="1808.0" y="314" transform="rotate(55 1808.0 314)">eval.draw_score</text>
<text x="1840.0" y="314" transform="rotate(55 1840.0 314)">eval.mate_score</text>
<text x="1872.0" y="314" transform="rotate(55 1872.0 314)">eval.missing_king_penalty</text>
<text x="1904.0" y="314" transform="rotate(55 1904.0 314)">eval.pawn_structure_weight</text>
<text x="1936.0" y="314" transform="rotate(55 1936.0 314)">eval.pawn_structure_weight: 1.0-&gt;1.05</text>
<text x="1968.0" y="314" transform="rotate(55 1968.0 314)">eval.pawn_structure_weight: 1.15-&gt;1.1</text>
<text x="2000.0" y="314" transform="rotate(55 2000.0 314)">king_safety.attacked_king_penalty: 70-&gt;162</text>
<text x="2032.0" y="314" transform="rotate(55 2032.0 314)">king_safety.pawn_shield_bonus: 7-&gt;9</text>
<text x="2064.0" y="314" transform="rotate(55 2064.0 314)">king_safety.piece_shield_bonus: 3-&gt;4</text>
<text x="2096.0" y="314" transform="rotate(55 2096.0 314)">move_ordering.capture_base_bonus: 1000-&gt;9…</text>
<text x="2128.0" y="314" transform="rotate(55 2128.0 314)">move_ordering.early_queen_penalty: 25-&gt;23</text>
<text x="2160.0" y="314" transform="rotate(55 2160.0 314)">phase</text>
<text x="2192.0" y="314" transform="rotate(55 2192.0 314)">phase.endgame_non_king_piece_threshold</text>
<text x="2224.0" y="314" transform="rotate(55 2224.0 314)">phase.opening_fullmove_limit</text>
<text x="2256.0" y="314" transform="rotate(55 2256.0 314)">piece_activity.center_bonus</text>
<text x="2288.0" y="314" transform="rotate(55 2288.0 314)">piece_activity.center_bonus: 13-&gt;12</text>
<text x="2320.0" y="314" transform="rotate(55 2320.0 314)">piece_activity.center_bonus: 14-&gt;13</text>
<text x="2352.0" y="314" transform="rotate(55 2352.0 314)">piece_activity.center_bonus: 15-&gt;17</text>
<text x="2384.0" y="314" transform="rotate(55 2384.0 314)">piece_activity.minor_center_distance_pena…</text>
<text x="2416.0" y="314" transform="rotate(55 2416.0 314)">piece_activity.minor_rank_bonus_weight: 2…</text>
<text x="2448.0" y="314" transform="rotate(55 2448.0 314)">piece_values</text>
<text x="2480.0" y="314" transform="rotate(55 2480.0 314)">piece_values.knight: 320-&gt;340</text>
<text x="2512.0" y="314" transform="rotate(55 2512.0 314)">piece_values.pawn: 100-&gt;110</text>
<text x="2544.0" y="314" transform="rotate(55 2544.0 314)">piece_values.queen</text>
<text x="2576.0" y="314" transform="rotate(55 2576.0 314)">search.default_depth</text>
<text x="2608.0" y="314" transform="rotate(55 2608.0 314)">search.max_depth</text>
</svg>
